<?xml version="1.0" standalone="no"?>
<!DOCTYPE svg PUBLIC "-//W3C//DTD SVG 20010904//EN"
 "http://www.w3.org/TR/2001/REC-SVG-20010904/DTD/svg10.dtd">
<svg version="1.0" xmlns="http://www.w3.org/2000/svg"
 width="300.000000pt" height="213.000000pt" viewBox="0 0 300.000000 213.000000"
 preserveAspectRatio="xMidYMid meet">
<metadata>
Created by potrace 1.10, written by Peter Selinger 2001-2011
</metadata>
<g transform="translate(0.000000,213.000000) scale(0.100000,-0.100000)"
fill="#000000" stroke="none">
<path d="M1430 1994 c-157 -25 -247 -69 -346 -168 -51 -51 -80 -91 -104 -141
l-32 -70 -102 -1 c-203 -1 -389 -89 -503 -239 -53 -69 -76 -117 -98 -200 -74
-286 122 -583 439 -667 139 -36 330 -17 455 46 l51 26 47 -29 c148 -89 338
-89 486 0 48 29 48 29 95 14 122 -42 269 -25 385 45 l65 40 44 -16 c64 -24
171 -21 243 6 72 28 150 101 184 175 35 74 40 191 11 267 -38 102 -145 197
-242 217 -25 5 -33 14 -45 50 -21 62 -52 109 -110 163 -81 75 -189 118 -298
118 l-50 0 -30 63 c-39 82 -149 194 -231 235 -98 49 -236 78 -314 66z m183
-30 c148 -38 291 -153 354 -286 26 -54 36 -65 52 -61 32 8 163 -17 218 -42 93
-42 184 -141 216 -235 14 -41 18 -44 75 -62 79 -24 169 -104 203 -180 35 -79
33 -202 -4 -279 -32 -67 -100 -132 -165 -162 -68 -29 -173 -34 -243 -10 l-56
19 -47 -33 c-102 -70 -278 -94 -395 -54 l-53 19 -42 -28 c-137 -93 -357 -93
-491 -1 l-40 27 -71 -33 c-191 -90 -434 -78 -614 32 -76 46 -171 148 -210 224
-189 375 118 795 569 779 50 -2 91 1 91 6 0 4 14 37 31 73 62 131 206 248 350
287 72 20 197 20 272 0z"/>
<path d="M1324 1922 c-118 -35 -227 -122 -263 -209 -7 -18 -18 -33 -24 -33 -6
0 -8 -2 -5 -5 3 -3 -5 -34 -17 -68 -18 -49 -27 -61 -42 -59 -63 12 -234 13
-282 2 -104 -23 -217 -94 -278 -175 -34 -45 -87 -145 -80 -151 2 -2 12 15 23
38 25 56 96 146 146 185 82 66 194 103 306 103 58 0 153 -13 183 -25 13 -5 18
2 23 33 9 59 81 195 130 245 59 61 121 95 207 113 122 26 266 2 377 -63 92
-54 183 -170 212 -269 l12 -40 49 6 c117 15 238 -26 318 -109 49 -50 91 -135
91 -184 0 -18 6 -22 39 -25 108 -7 197 -79 237 -191 7 -20 13 -28 14 -18 0 29
-45 109 -82 143 -42 40 -101 70 -155 79 -35 5 -43 11 -43 28 0 60 -91 191
-164 236 -54 34 -129 54 -207 56 -77 2 -99 8 -99 26 0 28 -57 125 -102 175
-100 108 -216 161 -378 169 -64 4 -100 0 -146 -13z"/>
<path d="M1179 1783 c-13 -16 -12 -17 4 -4 9 7 17 15 17 17 0 8 -8 3 -21 -13z"/>
<path d="M1005 1490 c-3 -6 1 -7 9 -4 18 7 21 14 7 14 -6 0 -13 -4 -16 -10z"/>
<path d="M959 1453 l-24 -28 28 24 c25 23 32 31 24 31 -2 0 -14 -12 -28 -27z"/>
<path d="M459 1363 l-24 -28 28 24 c15 14 27 26 27 28 0 8 -8 1 -31 -24z"/>
<path d="M316 1195 c-3 -9 -6 -22 -5 -28 0 -7 5 -1 10 12 5 13 8 26 5 28 -2 2
-6 -3 -10 -12z"/>
<path d="M290 1078 c0 -36 4 -35 14 5 4 16 2 27 -4 27 -5 0 -10 -14 -10 -32z"/>
<path d="M302 980 c0 -14 2 -19 5 -12 2 6 2 18 0 25 -3 6 -5 1 -5 -13z"/>
<path d="M2702 974 c-1 -17 -4 -47 -7 -65 l-5 -34 11 34 c5 18 8 47 6 65 l-4
31 -1 -31z"/>
<path d="M2675 849 c-11 -33 -84 -108 -130 -132 -31 -17 -58 -22 -122 -22 -55
0 -75 -3 -60 -8 12 -5 49 -7 82 -4 95 7 176 56 221 133 15 25 24 47 21 50 -3
3 -8 -4 -12 -17z"/>
<path d="M340 857 c0 -35 127 -179 185 -209 24 -13 17 -5 -54 53 -30 24 -72
71 -93 104 -21 33 -38 56 -38 52z"/>
<path d="M2223 718 c-15 -16 -57 -43 -93 -61 -60 -30 -72 -32 -170 -32 -88 0
-113 4 -154 22 l-48 23 -38 -30 c-64 -50 -127 -73 -225 -80 -60 -5 -75 -8 -45
-10 98 -5 181 16 257 66 l53 34 57 -19 c144 -49 304 -21 407 70 35 30 37 31
62 14 14 -9 29 -15 34 -13 5 2 -8 13 -30 24 l-39 22 -28 -30z"/>
<path d="M1155 648 c-22 -15 -71 -40 -110 -54 -42 -15 -56 -23 -35 -20 19 3
70 23 113 45 42 21 80 35 82 30 17 -26 195 -108 195 -89 0 6 -8 10 -17 10 -28
0 -116 44 -154 77 l-34 30 -40 -29z"/>
<path d="M999 653 c-13 -16 -12 -17 4 -4 9 7 17 15 17 17 0 8 -8 3 -21 -13z"/>
<path d="M557 629 c7 -7 15 -10 18 -7 3 3 -2 9 -12 12 -14 6 -15 5 -6 -5z"/>
<path d="M670 581 c8 -5 38 -12 65 -15 49 -5 49 -5 10 4 -77 19 -91 21 -75 11z"/>
<path d="M920 566 c0 -10 28 -13 41 -5 10 6 7 9 -13 9 -16 0 -28 -2 -28 -4z"/>
<path d="M833 553 c15 -2 37 -2 50 0 12 2 0 4 -28 4 -27 0 -38 -2 -22 -4z"/>
<path d="M1533 163 c9 -2 23 -2 30 0 6 3 -1 5 -18 5 -16 0 -22 -2 -12 -5z"/>
</g>
</svg>
